<svg width="128" height="128" viewBox="0 0 128 128" fill="none" xmlns="http://www.w3.org/2000/svg">
<path d="M63.3802 4.07036C59.1602 4.16036 57.9402 8.76036 56.4302 12.5204C54.9202 16.2804 45.9302 36.7304 40.1102 47.0504C34.2902 57.3704 26.4102 70.8904 27.5302 90.2204C28.6602 109.55 43.6702 123.98 64.7002 123.82C83.7102 123.68 100.34 112.72 101.02 88.9104C101.58 69.2004 90.7402 52.1704 85.3902 41.7504C82.2102 35.5504 71.8002 14.8004 70.7002 12.2304C68.7302 7.63036 67.8902 3.97036 63.3802 4.07036Z" fill="#4EC1F5"/>
<path d="M47.3799 64.4202C44.4199 64.5502 37.3799 73.7102 37.3799 85.2602C37.3799 96.8102 42.8299 105.34 48.7799 104.12C55.6799 102.71 54.5499 95.6702 53.1399 90.0402C51.9299 85.2002 50.0399 79.4802 49.6199 74.2702C49.3599 70.9002 50.4799 64.2802 47.3799 64.4202Z" fill="#B3E2FB"/>
</svg>
