<svg width="466" height="103" viewBox="0 0 466 103" fill="none" xmlns="http://www.w3.org/2000/svg">
<path d="M465.658 49.5075V56.0799H435.36V50.8877L454.617 27.5558H435.754V20.9834H465.132V26.1756L445.81 49.5075H465.658Z" fill="black"/>
<path d="M409.594 41.0288L403.482 46.8125V56.0795H395.266V7.3125H403.482V36.7567L420.504 20.983H430.363L415.706 35.7052L431.743 56.0795H421.753L409.594 41.0288Z" fill="black"/>
<path d="M379.877 56.54C378.387 56.54 377.116 56.0361 376.065 55.0284C375.013 53.9768 374.487 52.6623 374.487 51.085C374.487 49.4638 374.991 48.1493 375.999 47.1415C377.051 46.1338 378.343 45.6299 379.877 45.6299C381.41 45.6299 382.681 46.1338 383.689 47.1415C384.74 48.1493 385.266 49.4638 385.266 51.085C385.266 52.6623 384.74 53.9768 383.689 55.0284C382.637 56.0361 381.366 56.54 379.877 56.54Z" fill="black"/>
<path d="M367.38 49.5075V56.0799H337.081V50.8877L356.338 27.5558H337.476V20.9834H366.854V26.1756L347.531 49.5075H367.38Z" fill="black"/>
<path d="M330.432 38.7286C330.432 39.2982 330.388 40.1088 330.3 41.1604H302.762C303.244 43.7455 304.493 45.8049 306.508 47.3384C308.568 48.8282 311.109 49.573 314.132 49.573C317.988 49.573 321.165 48.3024 323.662 45.7611L328.066 50.8218C326.488 52.7059 324.495 54.1299 322.085 55.0938C319.675 56.0578 316.958 56.5398 313.935 56.5398C310.079 56.5398 306.684 55.773 303.748 54.2394C300.812 52.7059 298.534 50.5808 296.913 47.8642C295.335 45.1038 294.547 41.9929 294.547 38.5314C294.547 35.1138 295.313 32.0467 296.847 29.3301C298.424 26.5697 300.593 24.4228 303.354 22.8892C306.114 21.3556 309.225 20.5889 312.686 20.5889C316.104 20.5889 319.149 21.3556 321.822 22.8892C324.539 24.3789 326.642 26.504 328.131 29.2644C329.665 31.981 330.432 35.1357 330.432 38.7286ZM312.686 27.1612C310.057 27.1612 307.823 27.9499 305.983 29.5273C304.186 31.0608 303.091 33.1202 302.696 35.7053H322.611C322.26 33.164 321.187 31.1047 319.39 29.5273C317.594 27.9499 315.359 27.1612 312.686 27.1612Z" fill="black"/>
<path d="M241.957 10.0732H262.068C266.976 10.0732 271.336 11.0372 275.148 12.9651C278.96 14.8492 281.917 17.5438 284.02 21.0491C286.123 24.5106 287.175 28.5197 287.175 33.0766C287.175 37.6334 286.123 41.6645 284.02 45.1697C281.917 48.6312 278.96 51.3258 275.148 53.2537C271.336 55.1378 266.976 56.0799 262.068 56.0799H241.957V10.0732ZM261.674 48.8503C265.048 48.8503 268.006 48.2149 270.547 46.9443C273.132 45.6298 275.104 43.7895 276.462 41.4235C277.864 39.0136 278.565 36.2313 278.565 33.0766C278.565 29.9218 277.864 27.1614 276.462 24.7954C275.104 22.3855 273.132 20.5452 270.547 19.2746C268.006 17.9601 265.048 17.3029 261.674 17.3029H250.501V48.8503H261.674Z" fill="black"/>
<path d="M229.198 13.4906C225.736 13.4906 224.006 15.3747 224.006 19.1429V21.246H233.667V27.8184H224.268V56.0796H216.053V27.8184H210.269V21.246H216.053V19.0114C216.053 15.2433 217.148 12.2857 219.339 10.1387C221.53 7.94793 224.619 6.85254 228.606 6.85254C231.761 6.85254 234.237 7.48787 236.033 8.75853L233.733 14.9366C232.331 13.9726 230.819 13.4906 229.198 13.4906Z" fill="black"/>
<path d="M186.375 56.5398C182.826 56.5398 179.627 55.773 176.779 54.2394C173.931 52.7059 171.696 50.5808 170.075 47.8642C168.498 45.1038 167.709 41.9929 167.709 38.5314C167.709 35.07 168.498 31.981 170.075 29.2644C171.696 26.5478 173.931 24.4228 176.779 22.8892C179.627 21.3556 182.826 20.5889 186.375 20.5889C189.968 20.5889 193.188 21.3556 196.036 22.8892C198.884 24.4228 201.097 26.5478 202.674 29.2644C204.295 31.981 205.106 35.07 205.106 38.5314C205.106 41.9929 204.295 45.1038 202.674 47.8642C201.097 50.5808 198.884 52.7059 196.036 54.2394C193.188 55.773 189.968 56.5398 186.375 56.5398ZM186.375 49.5073C189.398 49.5073 191.896 48.4996 193.867 46.484C195.839 44.4685 196.825 41.8176 196.825 38.5314C196.825 35.2453 195.839 32.5944 193.867 30.5789C191.896 28.5633 189.398 27.5556 186.375 27.5556C183.351 27.5556 180.854 28.5633 178.882 30.5789C176.954 32.5944 175.99 35.2453 175.99 38.5314C175.99 41.8176 176.954 44.4685 178.882 46.484C180.854 48.4996 183.351 49.5073 186.375 49.5073Z" fill="black"/>
<path d="M149.496 26.1097C151.862 22.4291 156.024 20.5889 161.983 20.5889V28.41C161.282 28.2785 160.647 28.2128 160.077 28.2128C156.879 28.2128 154.381 29.1549 152.585 31.0389C150.788 32.8792 149.89 35.552 149.89 39.0572V56.0797H141.675V20.9832H149.496V26.1097Z" fill="black"/>
<path d="M112.694 10.0732C116.681 10.0732 120.143 10.7305 123.078 12.045C126.058 13.3594 128.336 15.2435 129.913 17.6972C131.491 20.1509 132.279 23.0646 132.279 26.4385C132.279 29.7685 131.491 32.6822 129.913 35.1797C128.336 37.6334 126.058 39.5175 123.078 40.832C120.143 42.1464 116.681 42.8037 112.694 42.8037H102.309V56.0799H93.7654V10.0732H112.694ZM112.299 35.5741C116.024 35.5741 118.85 34.7854 120.778 33.208C122.706 31.6306 123.67 29.3741 123.67 26.4385C123.67 23.5028 122.706 21.2463 120.778 19.6689C118.85 18.0915 116.024 17.3029 112.299 17.3029H102.309V35.5741H112.299Z" fill="black"/>
<path d="M446.371 77.123L439.599 92.2897C439.05 93.5601 438.415 94.4613 437.694 94.9935C436.973 95.5256 436.106 95.7917 435.093 95.7917C434.441 95.7917 433.831 95.6887 433.265 95.4827C432.698 95.2767 432.209 94.9677 431.797 94.5557L432.647 93.191C433.333 93.8777 434.157 94.221 435.119 94.221C435.737 94.221 436.26 94.0493 436.689 93.706C437.136 93.3627 437.548 92.779 437.925 91.955L438.518 90.6417L432.466 77.123H434.372L439.47 88.6333L444.569 77.123H446.371Z" fill="black"/>
<path d="M424.715 77.0205C426.414 77.0205 427.762 77.5183 428.758 78.514C429.771 79.4925 430.277 80.9259 430.277 82.8142V90.668H428.449V82.9945C428.449 81.5868 428.097 80.5139 427.393 79.7757C426.689 79.0376 425.685 78.6685 424.38 78.6685C422.921 78.6685 421.762 79.1062 420.904 79.9817C420.063 80.8401 419.642 82.0332 419.642 83.561V90.668H417.814V77.1235H419.565V79.6212C420.063 78.7973 420.749 78.1621 421.625 77.7158C422.518 77.2523 423.548 77.0205 424.715 77.0205Z" fill="black"/>
<path d="M407.362 77.0205C409.13 77.0205 410.486 77.4668 411.43 78.3595C412.374 79.235 412.846 80.5397 412.846 82.2735V90.668H411.095V88.5565C410.683 89.2603 410.074 89.8096 409.267 90.2045C408.478 90.5993 407.533 90.7967 406.435 90.7967C404.924 90.7967 403.722 90.4362 402.83 89.7152C401.937 88.9942 401.491 88.0415 401.491 86.857C401.491 85.7068 401.903 84.7798 402.727 84.076C403.568 83.3721 404.898 83.0202 406.718 83.0202H411.018V82.1962C411.018 81.0289 410.692 80.1448 410.04 79.544C409.387 78.926 408.435 78.617 407.181 78.617C406.323 78.617 405.499 78.7629 404.709 79.0547C403.92 79.3294 403.242 79.7157 402.675 80.2135L401.851 78.8488C402.538 78.2651 403.362 77.8188 404.323 77.5098C405.285 77.1836 406.297 77.0205 407.362 77.0205ZM406.718 89.3547C407.748 89.3547 408.632 89.123 409.37 88.6595C410.108 88.1788 410.658 87.4921 411.018 86.5995V84.385H406.769C404.452 84.385 403.293 85.1918 403.293 86.8055C403.293 87.5951 403.594 88.2217 404.194 88.6852C404.795 89.1315 405.636 89.3547 406.718 89.3547Z" fill="black"/>
<path d="M392.229 77.0205C393.5 77.0205 394.65 77.3123 395.68 77.896C396.71 78.4625 397.517 79.2693 398.1 80.3165C398.684 81.3637 398.976 82.5567 398.976 83.8957C398.976 85.2519 398.684 86.4536 398.1 87.5007C397.517 88.5479 396.71 89.3633 395.68 89.947C394.667 90.5135 393.517 90.7967 392.229 90.7967C391.131 90.7967 390.135 90.5735 389.242 90.1272C388.367 89.6637 387.646 88.9942 387.079 88.1187V95.6634H385.251V77.1235H387.002V79.8015C387.551 78.9088 388.272 78.2222 389.165 77.7415C390.075 77.2608 391.096 77.0205 392.229 77.0205ZM392.1 89.1745C393.045 89.1745 393.903 88.9599 394.675 88.5307C395.448 88.0844 396.049 87.4578 396.478 86.651C396.924 85.8441 397.147 84.9257 397.147 83.8957C397.147 82.8657 396.924 81.9559 396.478 81.1662C396.049 80.3594 395.448 79.7328 394.675 79.2865C393.903 78.8402 393.045 78.617 392.1 78.617C391.139 78.617 390.272 78.8402 389.5 79.2865C388.744 79.7328 388.144 80.3594 387.697 81.1662C387.268 81.9559 387.053 82.8657 387.053 83.8957C387.053 84.9257 387.268 85.8441 387.697 86.651C388.144 87.4578 388.744 88.0844 389.5 88.5307C390.272 88.9599 391.139 89.1745 392.1 89.1745Z" fill="black"/>
<path d="M374.832 77.0205C376.531 77.0205 377.862 77.5098 378.823 78.4883C379.801 79.4667 380.291 80.9087 380.291 82.8142V90.668H378.462V82.9945C378.462 81.5868 378.119 80.5139 377.432 79.7757C376.763 79.0376 375.81 78.6685 374.574 78.6685C373.166 78.6685 372.059 79.1062 371.252 79.9817C370.446 80.8401 370.042 82.0332 370.042 83.561V90.668H368.214V82.9945C368.214 81.5868 367.871 80.5139 367.184 79.7757C366.514 79.0376 365.553 78.6685 364.3 78.6685C362.909 78.6685 361.802 79.1062 360.978 79.9817C360.171 80.8401 359.768 82.0332 359.768 83.561V90.668H357.94V77.1235H359.691V79.5955C360.171 78.7715 360.841 78.1363 361.699 77.69C362.558 77.2437 363.545 77.0205 364.66 77.0205C365.793 77.0205 366.772 77.2608 367.596 77.7415C368.437 78.2222 369.064 78.9346 369.476 79.8787C369.973 78.9861 370.686 78.2908 371.613 77.793C372.557 77.278 373.63 77.0205 374.832 77.0205Z" fill="black"/>
<path d="M347.331 90.7967C346.026 90.7967 344.851 90.5049 343.803 89.9212C342.756 89.3204 341.932 88.4964 341.331 87.4492C340.731 86.4021 340.43 85.2176 340.43 83.8957C340.43 82.5739 340.731 81.3894 341.331 80.3422C341.932 79.2951 342.756 78.4797 343.803 77.896C344.851 77.3123 346.026 77.0205 347.331 77.0205C348.636 77.0205 349.812 77.3123 350.859 77.896C351.906 78.4797 352.721 79.2951 353.305 80.3422C353.906 81.3894 354.206 82.5739 354.206 83.8957C354.206 85.2176 353.906 86.4021 353.305 87.4492C352.721 88.4964 351.906 89.3204 350.859 89.9212C349.812 90.5049 348.636 90.7967 347.331 90.7967ZM347.331 89.1745C348.292 89.1745 349.151 88.9599 349.906 88.5307C350.679 88.0844 351.279 87.4578 351.709 86.651C352.138 85.8441 352.352 84.9257 352.352 83.8957C352.352 82.8657 352.138 81.9473 351.709 81.1405C351.279 80.3337 350.679 79.7157 349.906 79.2865C349.151 78.8402 348.292 78.617 347.331 78.617C346.37 78.617 345.503 78.8402 344.73 79.2865C343.975 79.7157 343.374 80.3337 342.928 81.1405C342.499 81.9473 342.284 82.8657 342.284 83.8957C342.284 84.9257 342.499 85.8441 342.928 86.651C343.374 87.4578 343.975 88.0844 344.73 88.5307C345.503 88.9599 346.37 89.1745 347.331 89.1745Z" fill="black"/>
<path d="M332.107 90.8222C330.321 90.8222 328.708 90.4274 327.266 89.6377C325.841 88.848 324.716 87.758 323.892 86.3675C323.086 84.9598 322.682 83.3891 322.682 81.6552C322.682 79.9214 323.086 78.3593 323.892 76.9688C324.716 75.5611 325.849 74.4624 327.291 73.6728C328.733 72.8831 330.347 72.4883 332.132 72.4883C333.471 72.4883 334.707 72.7114 335.84 73.1578C336.973 73.6041 337.935 74.2564 338.724 75.1148L337.514 76.325C336.106 74.9002 334.33 74.1878 332.184 74.1878C330.759 74.1878 329.463 74.5139 328.296 75.1663C327.128 75.8186 326.21 76.7113 325.54 77.8443C324.888 78.9773 324.562 80.2476 324.562 81.6552C324.562 83.0629 324.888 84.3332 325.54 85.4662C326.21 86.5992 327.128 87.4919 328.296 88.1442C329.463 88.7965 330.759 89.1227 332.184 89.1227C334.347 89.1227 336.124 88.4017 337.514 86.9597L338.724 88.17C337.935 89.0283 336.965 89.6892 335.815 90.1527C334.682 90.599 333.446 90.8222 332.107 90.8222Z" fill="black"/>
<path d="M306.736 77.0205C308.436 77.0205 309.766 77.5098 310.727 78.4883C311.706 79.4667 312.195 80.9087 312.195 82.8142V90.668H310.367V82.9945C310.367 81.5868 310.024 80.5139 309.337 79.7757C308.667 79.0376 307.715 78.6685 306.479 78.6685C305.071 78.6685 303.964 79.1062 303.157 79.9817C302.35 80.8401 301.947 82.0332 301.947 83.561V90.668H300.118V82.9945C300.118 81.5868 299.775 80.5139 299.088 79.7757C298.419 79.0376 297.458 78.6685 296.204 78.6685C294.814 78.6685 293.707 79.1062 292.883 79.9817C292.076 80.8401 291.672 82.0332 291.672 83.561V90.668H289.844V77.1235H291.595V79.5955C292.076 78.7715 292.745 78.1363 293.604 77.69C294.462 77.2437 295.449 77.0205 296.565 77.0205C297.698 77.0205 298.676 77.2608 299.5 77.7415C300.342 78.2222 300.968 78.9346 301.38 79.8787C301.878 78.9861 302.59 78.2908 303.517 77.793C304.462 77.278 305.535 77.0205 306.736 77.0205Z" fill="black"/>
<path d="M281.461 79.7757C281.89 78.8659 282.525 78.1793 283.366 77.7158C284.225 77.2523 285.28 77.0205 286.533 77.0205V78.7973L286.096 78.7715C284.671 78.7715 283.555 79.2092 282.748 80.0847C281.941 80.9602 281.538 82.1877 281.538 83.767V90.668H279.71V77.1235H281.461V79.7757Z" fill="black"/>
<path d="M269.261 77.0205C271.03 77.0205 272.386 77.4668 273.33 78.3595C274.274 79.235 274.746 80.5397 274.746 82.2735V90.668H272.995V88.5565C272.583 89.2603 271.974 89.8096 271.167 90.2045C270.377 90.5993 269.433 90.7967 268.334 90.7967C266.824 90.7967 265.622 90.4362 264.729 89.7152C263.837 88.9942 263.39 88.0415 263.39 86.857C263.39 85.7068 263.802 84.7798 264.626 84.076C265.468 83.3721 266.798 83.0202 268.618 83.0202H272.918V82.1962C272.918 81.0289 272.592 80.1448 271.939 79.544C271.287 78.926 270.334 78.617 269.081 78.617C268.223 78.617 267.399 78.7629 266.609 79.0547C265.819 79.3294 265.141 79.7157 264.575 80.2135L263.751 78.8488C264.438 78.2651 265.262 77.8188 266.223 77.5098C267.184 77.1836 268.197 77.0205 269.261 77.0205ZM268.618 89.3547C269.648 89.3547 270.532 89.123 271.27 88.6595C272.008 88.1788 272.557 87.4921 272.918 86.5995V84.385H268.669C266.352 84.385 265.193 85.1918 265.193 86.8055C265.193 87.5951 265.493 88.2217 266.094 88.6852C266.695 89.1315 267.536 89.3547 268.618 89.3547Z" fill="black"/>
<path d="M253.997 77.0205C255.697 77.0205 257.044 77.5183 258.04 78.514C259.053 79.4925 259.559 80.9259 259.559 82.8142V90.668H257.731V82.9945C257.731 81.5868 257.379 80.5139 256.675 79.7757C255.971 79.0376 254.967 78.6685 253.662 78.6685C252.203 78.6685 251.045 79.1062 250.186 79.9817C249.345 80.8401 248.924 82.0332 248.924 83.561V90.668H247.096V71.5615H248.924V79.4925C249.422 78.7028 250.109 78.0934 250.984 77.6643C251.86 77.2351 252.864 77.0205 253.997 77.0205Z" fill="black"/>
<path d="M235.747 72.6426C238.048 72.6426 239.85 73.1919 241.155 74.2906C242.46 75.3892 243.112 76.8999 243.112 78.8226C243.112 80.7452 242.46 82.2559 241.155 83.3545C239.85 84.436 238.048 84.9768 235.747 84.9768H230.906V90.6675H229.001V72.6426H235.747ZM235.696 83.303C237.481 83.303 238.846 82.9168 239.79 82.1443C240.734 81.3546 241.206 80.2474 241.206 78.8226C241.206 77.3634 240.734 76.2476 239.79 75.4751C238.846 74.6854 237.481 74.2906 235.696 74.2906H230.906V83.303H235.696Z" fill="black"/>
<path d="M216.745 90.6675L212.445 85.0025L208.119 90.6675H206.059L211.415 83.715L206.316 77.123H208.376L212.445 82.4275L216.513 77.123H218.522L213.423 83.715L218.831 90.6675H216.745Z" fill="black"/>
<path d="M197.668 77.0205C199.436 77.0205 200.793 77.4668 201.737 78.3595C202.681 79.235 203.153 80.5397 203.153 82.2735V90.668H201.402V88.5565C200.99 89.2603 200.381 89.8096 199.574 90.2045C198.784 90.5993 197.84 90.7967 196.741 90.7967C195.231 90.7967 194.029 90.4362 193.136 89.7152C192.244 88.9942 191.797 88.0415 191.797 86.857C191.797 85.7068 192.209 84.7798 193.033 84.076C193.875 83.3721 195.205 83.0202 197.025 83.0202H201.325V82.1962C201.325 81.0289 200.999 80.1448 200.346 79.544C199.694 78.926 198.741 78.617 197.488 78.617C196.63 78.617 195.806 78.7629 195.016 79.0547C194.226 79.3294 193.548 79.7157 192.982 80.2135L192.158 78.8488C192.845 78.2651 193.669 77.8188 194.63 77.5098C195.591 77.1836 196.604 77.0205 197.668 77.0205ZM197.025 89.3547C198.055 89.3547 198.939 89.123 199.677 88.6595C200.415 88.1788 200.964 87.4921 201.325 86.5995V84.385H197.076C194.759 84.385 193.6 85.1918 193.6 86.8055C193.6 87.5951 193.9 88.2217 194.501 88.6852C195.102 89.1315 195.943 89.3547 197.025 89.3547Z" fill="black"/>
<path d="M182.514 77.0205C184.213 77.0205 185.544 77.5098 186.505 78.4883C187.484 79.4667 187.973 80.9087 187.973 82.8142V90.668H186.145V82.9945C186.145 81.5868 185.801 80.5139 185.115 79.7757C184.445 79.0376 183.492 78.6685 182.257 78.6685C180.849 78.6685 179.742 79.1062 178.935 79.9817C178.128 80.8401 177.725 82.0332 177.725 83.561V90.668H175.896V82.9945C175.896 81.5868 175.553 80.5139 174.866 79.7757C174.197 79.0376 173.235 78.6685 171.982 78.6685C170.592 78.6685 169.485 79.1062 168.661 79.9817C167.854 80.8401 167.45 82.0332 167.45 83.561V90.668H165.622V77.1235H167.373V79.5955C167.854 78.7715 168.523 78.1363 169.382 77.69C170.24 77.2437 171.227 77.0205 172.343 77.0205C173.476 77.0205 174.454 77.2608 175.278 77.7415C176.119 78.2222 176.746 78.9346 177.158 79.8787C177.656 78.9861 178.368 78.2908 179.295 77.793C180.239 77.278 181.312 77.0205 182.514 77.0205Z" fill="black"/>
<path d="M155.17 77.0205C156.938 77.0205 158.294 77.4668 159.238 78.3595C160.182 79.235 160.655 80.5397 160.655 82.2735V90.668H158.904V88.5565C158.492 89.2603 157.882 89.8096 157.075 90.2045C156.286 90.5993 155.341 90.7967 154.243 90.7967C152.732 90.7967 151.53 90.4362 150.638 89.7152C149.745 88.9942 149.299 88.0415 149.299 86.857C149.299 85.7068 149.711 84.7798 150.535 84.076C151.376 83.3721 152.706 83.0202 154.526 83.0202H158.826V82.1962C158.826 81.0289 158.5 80.1448 157.848 79.544C157.195 78.926 156.243 78.617 154.99 78.617C154.131 78.617 153.307 78.7629 152.518 79.0547C151.728 79.3294 151.05 79.7157 150.483 80.2135L149.659 78.8488C150.346 78.2651 151.17 77.8188 152.131 77.5098C153.093 77.1836 154.105 77.0205 155.17 77.0205ZM154.526 89.3547C155.556 89.3547 156.44 89.123 157.178 88.6595C157.916 88.1788 158.466 87.4921 158.826 86.5995V84.385H154.578C152.26 84.385 151.101 85.1918 151.101 86.8055C151.101 87.5951 151.402 88.2217 152.003 88.6852C152.603 89.1315 153.445 89.3547 154.526 89.3547Z" fill="black"/>
<path d="M147.103 89.8438C146.76 90.1528 146.33 90.3931 145.815 90.5648C145.318 90.7193 144.794 90.7965 144.245 90.7965C142.974 90.7965 141.996 90.4532 141.309 89.7665C140.622 89.0799 140.279 88.11 140.279 86.8568V78.6683H137.859V77.1233H140.279V74.1621H142.107V77.1233H146.227V78.6683H142.107V86.7538C142.107 87.5606 142.305 88.1786 142.7 88.6078C143.112 89.0198 143.695 89.2258 144.451 89.2258C144.828 89.2258 145.189 89.1657 145.532 89.0456C145.893 88.9254 146.202 88.7537 146.459 88.5306L147.103 89.8438Z" fill="black"/>
<path d="M133.059 77.1235H134.887V90.668H133.059V77.1235ZM133.986 74.1623C133.608 74.1623 133.29 74.0335 133.033 73.776C132.775 73.5185 132.647 73.2095 132.647 72.849C132.647 72.5057 132.775 72.2053 133.033 71.9478C133.29 71.6903 133.608 71.5615 133.986 71.5615C134.363 71.5615 134.681 71.6903 134.938 71.9478C135.196 72.1881 135.325 72.4799 135.325 72.8233C135.325 73.2009 135.196 73.5185 134.938 73.776C134.681 74.0335 134.363 74.1623 133.986 74.1623Z" fill="black"/>
<path d="M130.902 72.6426L122.92 90.6675H121.04L113.058 72.6426H115.118L122.019 88.2985L128.971 72.6426H130.902Z" fill="black"/>
<path d="M12.8018 0.0233038C16.4847 -0.267135 21.9937 2.20159 24.4054 4.95312C30.4383 11.8243 25.6767 25.0622 36.0629 33.1333C44.7232 39.8592 63.9624 34.8836 64.6404 50.6819C65.4032 68.5515 44.076 63.0332 34.8994 72.4495C27.1714 80.3754 29.9375 95.3636 21.5545 100.484C8.45619 108.479 -6.87658 92.6197 3.32472 80.1079C7.70882 74.7348 12.2393 75.8889 18.0103 74.0393C40.786 66.7707 43.683 40.914 21.9629 30.3053C15.3598 27.08 4.51128 27.187 1.2521 19.5133C-2.3615 10.9988 3.43259 0.764687 12.8018 0.0233038Z" fill="#78C1F0"/>
</svg>
